<?xml version="1.0" encoding="utf-8"?>
<!-- Generator: Adobe Illustrator 16.0.4, SVG Export Plug-In . SVG Version: 6.00 Build 0)  -->
<!DOCTYPE svg PUBLIC "-//W3C//DTD SVG 1.1//EN" "http://www.w3.org/Graphics/SVG/1.1/DTD/svg11.dtd">
<svg version="1.1" id="Layer_1" xmlns="http://www.w3.org/2000/svg" xmlns:xlink="http://www.w3.org/1999/xlink" x="0px" y="0px"
	 width="30px" height="30px" viewBox="0 0 30 30" enable-background="new 0 0 30 30" xml:space="preserve">
<path fill="#4A4A49" d="M27.437,14.12l-7.039-7.04c-0.484-0.485-1.271-0.485-1.756,0s-0.484,1.271,0,1.757l2.021,4.146H4.061
	c0,0-1.862,0.054-1.862,2.017c0,1.866,1.862,2.019,1.862,2.019h16.603l-2.021,4.146c-0.484,0.484-0.484,1.271,0,1.756
	c0.242,0.242,0.559,0.365,0.877,0.365s0.637-0.12,0.879-0.365l7.039-7.04C27.923,15.392,27.923,14.605,27.437,14.12z"/>
</svg>
