<?xml version="1.0" encoding="utf-8"?>
<!-- Generator: Adobe Illustrator 16.0.4, SVG Export Plug-In . SVG Version: 6.00 Build 0)  -->
<!DOCTYPE svg PUBLIC "-//W3C//DTD SVG 1.1//EN" "http://www.w3.org/Graphics/SVG/1.1/DTD/svg11.dtd">
<svg version="1.1" id="Layer_1" xmlns="http://www.w3.org/2000/svg" xmlns:xlink="http://www.w3.org/1999/xlink" x="0px" y="0px"
	 width="400px" height="400px" viewBox="0 0 400 400" enable-background="new 0 0 400 400" xml:space="preserve">
<g transform="matrix(1 0 0 -1 0 960)">
	<path d="M300,745.547v28.516c0,3.906-1.432,7.292-4.297,10.156s-6.25,4.297-10.156,4.297H114.062c-3.646,0-6.901-1.432-9.766-4.297
		S100,777.969,100,774.062v-28.516c0-3.906,1.432-7.162,4.297-9.766c2.865-2.865,6.12-4.297,9.766-4.297h171.484
		c3.906,0,7.291,1.432,10.156,4.297C298.568,738.385,300,741.641,300,745.547L300,745.547z M371.484,760
		c0-31.25-7.683-59.896-23.047-85.938c-15.365-26.303-36.197-47.135-62.5-62.5S230.99,588.516,200,588.516
		c-31.25,0-59.896,7.682-85.938,23.047c-26.302,15.365-47.135,36.197-62.5,62.5C36.198,700.104,28.516,728.75,28.516,760
		c0,30.99,7.682,59.635,23.047,85.938s36.198,47.135,62.5,62.5c26.042,15.365,54.688,23.047,85.938,23.047
		c30.99,0,59.635-7.682,85.938-23.047s47.135-36.198,62.5-62.5C363.802,819.635,371.484,790.99,371.484,760L371.484,760z"/>
</g>
</svg>
