<?xml version="1.0" encoding="utf-8"?>
<!-- Generator: Adobe Illustrator 16.0.4, SVG Export Plug-In . SVG Version: 6.00 Build 0)  -->
<!DOCTYPE svg PUBLIC "-//W3C//DTD SVG 1.1//EN" "http://www.w3.org/Graphics/SVG/1.1/DTD/svg11.dtd">
<svg version="1.1" id="Layer_1" xmlns="http://www.w3.org/2000/svg" xmlns:xlink="http://www.w3.org/1999/xlink" x="0px" y="0px"
	 width="400px" height="400px" viewBox="0 0 400 400" enable-background="new 0 0 400 400" xml:space="preserve">
<path d="M379.707,158.634l-38.243-7.805c-0.521-1.301-0.976-2.667-1.366-4.098c-0.391-1.431-0.976-2.796-1.756-4.097
	c-0.781-1.301-1.366-2.602-1.757-3.903c-0.39-1.301-1.105-2.602-2.146-3.902l22.243-32.39c1.301-2.602,2.342-5.333,3.122-8.195
	c0.78-2.862,0.976-5.659,0.586-8.391c-0.391-2.731-1.106-5.398-2.146-8c-1.041-2.602-2.732-4.943-5.073-7.024l-23.805-24.195
	c-1.301-1.041-2.602-2.016-3.902-2.927c-1.302-0.91-2.797-1.691-4.488-2.341s-3.252-1.17-4.683-1.561
	c-1.432-0.39-3.058-0.585-4.878-0.585c-1.041,0-2.212,0.13-3.513,0.39s-2.472,0.52-3.512,0.78c-1.041,0.26-2.146,0.715-3.317,1.366
	s-2.146,1.236-2.927,1.756l-33.171,21.854c-1.04-0.78-2.276-1.431-3.708-1.951c-1.43-0.52-2.73-1.105-3.902-1.756
	c-1.17-0.65-2.536-1.236-4.098-1.756c-1.561-0.521-2.861-0.911-3.902-1.171l-8.194-38.244c-0.261-3.122-1.235-5.918-2.927-8.39
	s-3.512-4.553-5.464-6.244c-1.951-1.691-4.357-3.057-7.22-4.098c-2.861-1.041-5.723-1.561-8.585-1.561h-34.341
	c-2.602,0-5.333,0.52-8.195,1.561c-2.862,1.041-5.268,2.407-7.219,4.098c-1.952,1.691-3.772,3.772-5.464,6.244
	c-1.691,2.472-2.667,5.268-2.927,8.39l-8.195,38.244c-1.041,0.26-2.342,0.65-3.902,1.171c-1.561,0.521-2.927,1.106-4.098,1.756
	c-1.171,0.65-2.472,1.236-3.902,1.756c-1.431,0.521-2.667,1.171-3.708,1.951l-32.78-21.854c-1.041-0.521-2.146-1.106-3.317-1.756
	S96.65,40.65,95.61,40.39s-2.211-0.52-3.512-0.78s-2.472-0.39-3.512-0.39c-1.821,0-3.447,0.195-4.878,0.585
	c-1.431,0.391-2.992,0.911-4.683,1.561s-3.187,1.431-4.488,2.341c-1.301,0.911-2.602,1.887-3.902,2.927L46.829,70.829
	c-2.341,2.082-4.032,4.423-5.073,7.024c-1.041,2.602-1.756,5.269-2.146,8c-0.39,2.732-0.195,5.528,0.585,8.391
	c0.78,2.861,1.821,5.593,3.122,8.195l22.244,32.39c-1.041,1.301-1.756,2.602-2.146,3.902c-0.39,1.301-0.976,2.602-1.756,3.903
	c-0.781,1.301-1.366,2.667-1.756,4.097c-0.39,1.431-0.845,2.797-1.366,4.098l-38.244,7.805c-3.122,0.52-5.854,1.561-8.195,3.122
	c-2.342,1.561-4.423,3.382-6.244,5.464c-1.821,2.081-3.187,4.488-4.098,7.219c-0.91,2.732-1.496,5.659-1.756,8.781l0.39,33.951
	c-0.26,2.862,0.195,5.658,1.366,8.39c1.171,2.732,2.537,5.139,4.098,7.22s3.643,3.903,6.244,5.464s5.203,2.602,7.805,3.122
	l39.024,7.805c0,1.301,0.325,2.666,0.976,4.098c0.65,1.431,1.236,2.797,1.756,4.098c0.52,1.301,1.105,2.602,1.756,3.902
	s1.236,2.602,1.756,3.902l-21.463,32.78c-1.821,2.341-2.992,4.943-3.512,7.805c-0.521,2.862-0.716,5.659-0.585,8.391
	c0.13,2.731,0.845,5.398,2.146,8c1.301,2.602,2.862,4.942,4.683,7.024l24.585,24.195c0.78,1.301,1.951,2.406,3.512,3.316
	s3.057,1.627,4.488,2.146c1.431,0.521,2.992,0.976,4.683,1.366c1.691,0.39,3.187,0.585,4.488,0.585c1.561,0,2.862-0.13,3.902-0.391
	c1.041-0.26,2.211-0.52,3.512-0.779c1.301-0.261,2.406-0.65,3.317-1.172c0.911-0.52,2.146-1.17,3.708-1.951l32-21.854
	c1.561,0.781,2.927,1.432,4.098,1.951c1.17,0.521,2.471,1.105,3.902,1.756c1.431,0.65,2.796,1.236,4.098,1.757
	c1.301,0.521,2.731,0.911,4.292,1.171l7.415,38.634c0.781,2.862,1.886,5.528,3.317,8c1.431,2.472,3.252,4.553,5.464,6.244
	c2.211,1.69,4.618,3.057,7.219,4.097c2.602,1.041,5.463,1.562,8.585,1.562h33.951c3.122,0,5.983-0.521,8.585-1.562
	c2.602-1.04,5.009-2.406,7.22-4.097c2.212-1.691,4.032-3.772,5.464-6.244c1.431-2.472,2.536-5.138,3.316-8l7.415-38.634
	c1.562-0.26,2.991-0.65,4.292-1.171c1.302-0.521,2.668-1.106,4.098-1.757c1.432-0.65,2.732-1.235,3.902-1.756
	c1.172-0.52,2.537-1.17,4.098-1.951l32.391,21.854c1.301,0.781,2.406,1.432,3.317,1.951c0.911,0.521,2.017,0.911,3.317,1.172
	c1.301,0.26,2.471,0.52,3.512,0.779c1.041,0.261,2.342,0.391,3.902,0.391c1.301,0,2.797-0.195,4.488-0.585
	c1.69-0.391,3.252-0.846,4.683-1.366c1.431-0.52,2.927-1.236,4.488-2.146c1.561-0.91,2.731-2.016,3.512-3.316l24.585-24.195
	c1.821-2.082,3.383-4.423,4.684-7.024s2.016-5.269,2.146-8c0.13-2.731-0.065-5.528-0.586-8.391c-0.521-2.861-1.69-5.464-3.512-7.805
	l-21.464-32.78c0.521-1.301,1.105-2.602,1.756-3.902s1.236-2.602,1.757-3.902c0.52-1.301,1.105-2.667,1.756-4.098
	c0.65-1.432,0.976-2.797,0.976-4.098l39.024-7.805c2.602-0.521,5.203-1.562,7.805-3.122s4.683-3.383,6.244-5.464
	c1.561-2.081,2.927-4.487,4.098-7.22c1.171-2.731,1.626-5.527,1.365-8.39L400,183.22c-0.26-3.122-0.846-6.049-1.756-8.781
	c-0.911-2.731-2.276-5.138-4.098-7.219c-1.821-2.082-3.902-3.903-6.244-5.464C385.561,160.195,382.829,159.154,379.707,158.634
	L379.707,158.634z M336.78,224.586c-2.341,0.52-4.423,1.235-6.244,2.146c-1.82,0.911-3.642,2.081-5.463,3.513
	c-1.821,1.431-3.252,3.057-4.293,4.878c-1.04,1.821-2.081,3.772-3.122,5.854c-0.26,1.041-0.65,2.146-1.17,3.316
	c-0.521,1.172-0.911,2.342-1.171,3.513c-0.261,1.171-0.716,2.276-1.366,3.317s-1.105,2.081-1.366,3.122
	c-1.301,2.081-2.081,4.162-2.341,6.243c-0.261,2.082-0.391,4.229-0.391,6.439s0.391,4.357,1.171,6.439
	c0.78,2.081,1.691,4.032,2.731,5.854L336,311.61l-24.585,24.194l-32.001-21.854c-1.301-0.78-2.471-1.431-3.512-1.951
	s-2.211-0.911-3.512-1.171s-2.472-0.52-3.513-0.78c-1.04-0.261-2.341-0.39-3.902-0.39c-0.521,0-1.301,0.064-2.341,0.194
	c-1.041,0.13-2.018,0.325-2.928,0.585l-2.731,0.781c0,0-0.846,0.391-2.536,1.17c-1.301,0.521-2.406,1.041-3.317,1.562
	s-2.017,0.976-3.317,1.366s-2.471,0.846-3.512,1.365c-1.041,0.521-2.212,0.91-3.513,1.171c-1.821,0.78-3.707,1.757-5.658,2.927
	c-1.951,1.171-3.577,2.602-4.878,4.293s-2.472,3.512-3.512,5.463c-1.041,1.951-1.691,3.968-1.952,6.049l-7.805,38.244h-33.951
	l-7.805-38.244c-0.26-2.081-0.911-4.098-1.952-6.049c-1.041-1.951-2.211-3.771-3.512-5.463c-1.301-1.691-2.927-3.122-4.878-4.293
	c-1.951-1.17-3.837-2.146-5.658-2.927c-1.301-0.261-2.472-0.65-3.512-1.171c-1.041-0.52-2.211-0.975-3.512-1.365
	s-2.407-0.846-3.317-1.366s-2.016-1.04-3.317-1.562c-0.781-0.52-1.626-0.91-2.537-1.17s-1.756-0.521-2.537-0.781
	c-0.78-0.26-1.756-0.455-2.927-0.585s-2.016-0.194-2.537-0.194c-1.561,0-2.862,0.129-3.902,0.39
	c-1.041,0.261-2.211,0.521-3.512,0.78s-2.472,0.65-3.512,1.171s-2.211,1.171-3.512,1.951l-32,21.854L64,311.61l22.244-32.391
	c1.041-1.821,1.951-3.772,2.731-5.854c0.78-2.082,1.171-4.229,1.171-6.439s-0.13-4.357-0.391-6.439
	c-0.26-2.081-1.041-4.162-2.341-6.243c-0.26-1.041-0.65-2.081-1.17-3.122c-0.521-1.041-0.976-2.146-1.366-3.317
	s-0.845-2.341-1.366-3.513c-0.521-1.17-0.911-2.275-1.171-3.316c-1.041-2.081-2.081-4.032-3.122-5.854
	c-1.041-1.821-2.472-3.447-4.293-4.878c-1.821-1.432-3.642-2.602-5.463-3.513c-1.821-0.91-3.902-1.626-6.244-2.146l-37.854-7.415
	l-0.39-33.951l38.634-7.805c1.821-0.52,3.772-1.236,5.854-2.146c2.082-0.91,3.902-2.081,5.463-3.512
	c1.561-1.431,2.992-3.057,4.293-4.878s2.211-3.772,2.731-5.854c0.781-1.041,1.301-2.146,1.561-3.317
	c0.26-1.171,0.65-2.342,1.171-3.512c0.52-1.171,0.976-2.276,1.366-3.317c0.39-1.041,0.976-2.081,1.756-3.122
	c0.781-2.081,1.431-4.163,1.951-6.244c0.521-2.082,0.651-4.228,0.391-6.439s-0.65-4.358-1.171-6.439
	c-0.521-2.082-1.561-4.033-3.122-5.854L64.39,88.39l23.805-24.195l32.78,21.854c0.78,0.78,1.821,1.431,3.122,1.951
	s2.472,0.911,3.512,1.171c1.041,0.26,2.211,0.52,3.512,0.78s2.471,0.39,3.512,0.39c1.041,0,1.951-0.065,2.731-0.195
	c0.781-0.13,1.691-0.325,2.732-0.585s1.951-0.521,2.731-0.781c0.781-0.26,1.821-0.65,3.122-1.17
	c0.781-0.521,1.756-0.976,2.927-1.366c1.171-0.391,2.276-0.846,3.317-1.366c1.041-0.52,2.211-0.976,3.512-1.366
	c1.301-0.39,2.341-0.846,3.122-1.366c2.342-0.781,4.358-1.756,6.049-2.927c1.691-1.171,3.317-2.602,4.878-4.293
	c1.561-1.691,2.732-3.447,3.512-5.268c0.781-1.821,1.561-3.903,2.342-6.244l7.024-38.244h34.341l7.415,38.244
	c0.78,2.341,1.561,4.423,2.342,6.244c0.779,1.821,1.951,3.577,3.512,5.268c1.561,1.691,3.187,3.122,4.878,4.293
	c1.69,1.17,3.707,2.146,6.049,2.927c0.78,0.52,1.821,0.976,3.122,1.366s2.471,0.846,3.512,1.366
	c1.041,0.521,2.146,0.976,3.317,1.366c1.171,0.39,2.146,0.845,2.927,1.366l2.927,1.17c0,0,0.846,0.26,2.536,0.781
	c1.691,0.52,2.667,0.715,2.928,0.585c0.26-0.13,1.235-0.065,2.926,0.195c1.691,0.26,2.862,0.13,3.513-0.39s1.821-0.78,3.513-0.78
	c1.69,0,2.861-0.391,3.512-1.171s1.691-1.431,3.122-1.951l32.78-21.854l23.805,24.195l-21.463,32.39
	c-1.562,1.821-2.602,3.772-3.122,5.854c-0.521,2.081-0.91,4.228-1.171,6.439c-0.26,2.211-0.13,4.357,0.391,6.439
	c0.521,2.081,1.171,4.163,1.951,6.244c0.78,1.041,1.301,2.082,1.561,3.122c0.261,1.041,0.716,2.146,1.366,3.317
	c0.65,1.17,1.105,2.341,1.366,3.512c0.26,1.17,0.78,2.276,1.561,3.317c0.521,2.081,1.431,4.032,2.731,5.854s2.731,3.447,4.293,4.878
	c1.561,1.431,3.382,2.602,5.463,3.512c2.082,0.911,4.033,1.626,5.854,2.146l38.634,7.805l-0.391,33.951L336.78,224.586
	L336.78,224.586z M199.805,112.585c-11.707,0-22.959,2.276-33.756,6.829s-20.098,10.797-27.902,18.732
	c-7.805,7.935-14.049,17.236-18.732,27.902c-4.683,10.667-6.894,21.984-6.634,33.951c-0.26,11.967,1.952,23.285,6.634,33.951
	c4.683,10.667,10.927,19.968,18.732,27.902c7.805,7.935,17.105,14.179,27.902,18.731s22.049,6.83,33.756,6.83
	c12.229,0,23.609-2.277,34.146-6.83s19.838-10.797,27.902-18.731c8.065-7.935,14.309-17.235,18.732-27.902
	c4.422-10.666,6.764-21.984,7.023-33.951c-0.26-11.967-2.602-23.285-7.023-33.951c-4.424-10.667-10.667-19.968-18.732-27.902
	c-8.064-7.935-17.365-14.179-27.902-18.732S212.033,112.585,199.805,112.585L199.805,112.585z M200.195,276.487
	c-10.927,0-20.943-2.016-30.049-6.049c-9.106-4.032-17.171-9.496-24.195-16.39c-7.024-6.895-12.488-14.959-16.39-24.195
	s-5.984-19.188-6.244-29.854c0.26-10.667,2.342-20.618,6.244-29.854s9.366-17.301,16.39-24.195s15.089-12.358,24.195-16.39
	c9.105-4.033,19.122-6.049,30.049-6.049c10.406,0,20.293,2.016,29.658,6.049c9.366,4.032,17.432,9.496,24.195,16.39
	s12.228,14.959,16.391,24.195c4.162,9.236,6.113,19.187,5.854,29.854c0.26,10.666-1.691,20.617-5.854,29.854
	c-4.163,9.236-9.627,17.301-16.391,24.195c-6.764,6.894-14.829,12.357-24.195,16.39
	C220.488,274.472,210.602,276.487,200.195,276.487L200.195,276.487z M199.805,150.049c-6.764,0-13.203,1.301-19.317,3.902
	s-11.382,6.179-15.805,10.732c-4.423,4.553-8,9.886-10.732,16c-2.731,6.114-3.967,12.553-3.707,19.317
	c-0.26,7.024,0.976,13.528,3.707,19.512c2.732,5.984,6.309,11.252,10.732,15.805c4.422,4.554,9.691,8.131,15.805,10.732
	s12.553,3.902,19.317,3.902c7.285,0,13.854-1.301,19.707-3.902s11.123-6.179,15.805-10.732c4.684-4.553,8.261-9.82,10.732-15.805
	c2.472-5.983,3.838-12.487,4.098-19.512c-0.26-6.764-1.626-13.203-4.098-19.317s-6.049-11.447-10.732-16
	c-4.682-4.553-9.951-8.13-15.805-10.732S207.09,150.049,199.805,150.049L199.805,150.049z M200.195,237.463
	c-5.463,0-10.407-0.975-14.83-2.926s-8.39-4.618-11.902-8c-3.512-3.383-6.179-7.35-8-11.902c-1.821-4.554-2.862-9.432-3.122-14.635
	c0.26-5.203,1.301-10.081,3.122-14.634c1.821-4.553,4.488-8.52,8-11.902s7.479-6.049,11.902-8s9.366-2.927,14.83-2.927
	c4.943,0,9.756,0.976,14.439,2.927c4.682,1.951,8.65,4.618,11.902,8s5.918,7.35,8,11.902c2.08,4.553,2.991,9.431,2.73,14.634
	c0.261,5.203-0.65,10.081-2.73,14.635c-2.082,4.553-4.748,8.52-8,11.902c-3.252,3.382-7.221,6.049-11.902,8
	C209.951,236.488,205.139,237.463,200.195,237.463L200.195,237.463z"/>
</svg>
